<?xml version="1.0" encoding="UTF-8"?>
<svg xmlns="http://www.w3.org/2000/svg" xmlns:xlink="http://www.w3.org/1999/xlink" width="512" height="512" viewBox="0 0 59 60" version="1.1"><!-- Generator: Sketch 51.3 (57544) - http://www.bohemiancoding.com/sketch --><title>009 - Heartbreak</title><desc>Created with Sketch.</desc><defs/><g id="Page-1" stroke="none" stroke-width="1" fill="none" fill-rule="evenodd"><g id="009---Heartbreak" transform="translate(-1.000000, -1.000000)" fill="#FFF" fill-rule="nonzero"><path d="M2.472,38.391 C2.80078202,38.6194083 3.14797678,38.8200989 3.51,38.991 C3.942,39.212 4.667,39.582 4.718,39.841 C4.78091334,40.1828671 4.73980788,40.535747 4.6,40.854 C4.451,41.174 4.3,41.449 4.16,41.686 C3.794,42.333 3.181,43.417 4.105,44.172 C4.321,44.372 4.694,44.661 5.034,44.922 C4.78370505,45.359639 4.67048978,45.8623148 4.709,46.365 C4.76206133,46.7609003 4.97674391,47.1171358 5.302,47.349 C5.524,47.505 5.761,47.641 5.994,47.774 C6.586,48.11 6.817,48.267 6.894,48.581 C6.94956021,48.9834802 6.91541128,49.3932674 6.794,49.781 C6.735,50.048 6.678,50.316 6.644,50.581 C6.54469822,51.4923539 6.65729272,52.4143284 6.973,53.275 C7.42281456,54.8638526 8.85996076,55.9707558 10.511,56 C10.7865929,55.9991845 11.0613714,55.9700312 11.331,55.913 C14.1877778,55.2358183 17.0028445,54.3934018 19.762,53.39 C22.015,54.712 23.438,58.732 23.809,60.241 C23.9197719,60.6870872 24.3203652,61.0002183 24.78,61 L49.88,60.93 C50.198095,60.9293833 50.4969218,60.7774667 50.6848608,60.5208273 C50.8727998,60.2641879 50.9274293,59.9334437 50.832,59.63 C50.584758,58.9524505 50.2437748,58.3128965 49.819,57.73 C49.5792082,57.3843183 49.3630492,57.0228282 49.172,56.648 C48.7190564,55.7315437 48.3414759,54.7797332 48.043,53.802 C47.4717419,51.8695435 47.0758071,49.8895347 46.86,47.886 C46.5085267,44.8942172 46.9621452,41.8628444 48.174,39.105 C48.9132994,37.5756869 49.8241541,36.1354294 50.889,34.812 C51.489,34.002 52.112,33.163 52.671,32.283 C54.2586222,29.8291353 55.1117971,26.9726127 55.13,24.05 L55.13,23.872 C55.8472041,23.0118339 56.4813666,22.0857022 57.024,21.106 C61.048,14.122 60.963,7.006 56.813,3.406 C54.4083666,1.42107766 51.2506702,0.597808038 48.183,1.156 C45.296368,1.65297672 42.7184897,3.2589917 41,5.631 C38.9571066,2.7477735 35.6475851,1.02858024 32.114,1.015 C32.089,1.013 32.066,1 32.04,1 C31.948,1 31.849,1.007 31.753,1.012 C31.597,1.012 31.441,1.012 31.286,1.025 C31.196,1.025 31.103,1.025 31.018,1.031 C27.7640828,1.25668862 24.5310865,1.72059835 21.345,2.419 C16.836,3.319 13.559,4.9 11.322,7.264 C9.55741114,9.15217091 8.19304573,11.3778111 7.311,13.807 C6.95086895,14.8522819 6.65498362,15.9186045 6.425,17 L6.325,17.422 C6.1115707,18.2063052 5.82532664,18.9689531 5.47,19.7 C5.27,20.156 5.062,20.612 4.883,21.084 C4.65284498,21.6094053 4.56192334,22.1852424 4.619,22.756 C4.82021123,23.6521932 5.3374331,24.4459531 6.076,24.992 C6.565,25.44 6.886,25.756 6.89,26.031 C6.85421996,26.1830023 6.79697882,26.3291355 6.72,26.465 C5.52247783,28.986227 4.05560327,31.370443 2.345,33.576 C1.62,34.458 0.86,35.487 1.02,36.517 C1.23211923,37.311598 1.75555427,37.9871609 2.472,38.391 Z M39.986,7.719 L38.168,10.445 C38.0085951,10.6837383 37.9594755,10.979468 38.0331435,11.2569188 C38.1068115,11.5343696 38.2961617,11.7667814 38.553,11.895 L40.764,13 L38.553,14.105 C38.2135855,14.2741635 37.9990661,14.6207659 37.9990661,15 C37.9990661,15.3792341 38.2135855,15.7258365 38.553,15.895 L40.764,17 L38.553,18.105 C38.2961617,18.2332186 38.1068115,18.4656304 38.0331435,18.7430812 C37.9594755,19.020532 38.0085951,19.3162617 38.168,19.555 L40,22.3 L40,25 C40,25.5522847 40.4477153,26 41,26 C41.5522847,26 42,25.5522847 42,25 L42,22 C41.9996876,21.8025206 41.9412599,21.6095007 41.832,21.445 L40.46,19.388 L43.447,17.9 C43.7864145,17.7308365 44.0009339,17.3842341 44.0009339,17.005 C44.0009339,16.6257659 43.7864145,16.2791635 43.447,16.11 L41.236,15 L43.447,13.9 C43.7864145,13.7308365 44.0009339,13.3842341 44.0009339,13.005 C44.0009339,12.6257659 43.7864145,12.2791635 43.447,12.11 L40.46,10.612 L41.832,8.555 C41.9828406,8.3282503 42.0338258,8.04945912 41.973,7.784 C43.3522193,5.3356876 45.7500877,3.62873662 48.515,3.127 C50.9926773,2.67999671 53.5422493,3.33299374 55.5,4.916 C58.9,7.872 58.82,13.978 55.274,20.134 C52.443,25.405 44.7,30.423 41,32.606 C37.3,30.423 29.557,25.406 26.708,20.106 C23.177,13.976 23.093,7.87 26.497,4.914 C27.9295165,3.73457192 29.714156,3.06603585 31.569,3.014 C31.596,3.014 31.624,3.014 31.653,3.014 C31.771,3.006 31.881,3 31.992,2.998 C32.4922673,2.99830243 32.991647,3.04011252 33.485,3.123 C36.2238576,3.62104774 38.603037,5.30305182 39.986,7.719 Z M3.925,34.8 C5.71607044,32.4942449 7.2517206,30.0009928 8.505,27.364 C8.73934083,26.9508574 8.87135428,26.4876102 8.89,26.013 C8.78670832,25.0078401 8.25404392,24.0963679 7.429,23.513 C7.029,23.142 6.644,22.792 6.599,22.466 C6.60563423,22.2299751 6.65864086,21.9975614 6.755,21.782 C6.918,21.353 7.106,20.933 7.295,20.512 C7.70505054,19.6664994 8.03256792,18.783408 8.273,17.875 L8.373,17.449 C8.58420479,16.4502828 8.85638101,15.465439 9.188,14.5 C9.97629737,12.324256 11.1967986,10.3305666 12.776,8.639 C14.689,6.615 17.7,5.183 21.74,4.38 C22.696,4.185 23.724,3.992 24.777,3.807 C21.048,7.516 21.093,14.365 24.961,21.081 C28.173,27.054 36.9,32.546 40.5,34.63 C40.8094011,34.8086328 41.1905989,34.8086328 41.5,34.63 C45.6125994,32.2911606 49.4430226,29.4877981 52.916,26.275 C52.6089666,28.0340228 51.9519916,29.7135258 50.984,31.214 C50.465,32.035 49.865,32.843 49.284,33.625 C48.1272229,35.0690946 47.1397788,36.6410198 46.341,38.31 C44.9876868,41.3947013 44.4816273,44.7845409 44.875,48.13 C45.1063132,50.253527 45.5280095,52.351968 46.135,54.4 C46.4640482,55.4749292 46.879054,56.5216399 47.376,57.53 C47.6041562,57.9828684 47.8630969,58.4195592 48.151,58.837 L48.218,58.937 L25.536,59 C24.8721602,56.6278229 23.6672676,54.4419012 22.016,52.614 L22.916,52.299 C23.586,52.065 24.091,51.889 24.35,51.806 C28.634,50.451 30.776,48.5 30.718,46.006 C30.7050213,45.4537153 30.2467847,45.0165213 29.6945,45.0295 C29.1422153,45.0424787 28.7050213,45.5007153 28.718,46.053 C28.742,47.082 27.899,48.583 23.742,49.898 C23.471,49.985 22.949,50.167 22.256,50.409 C21.513,50.669 20.568,50.999 19.526,51.353 L19.519,51.353 C16.7047997,52.3845725 13.8333482,53.2526858 10.919,53.953 C9.98854295,54.1291385 9.08427788,53.5417187 8.867,52.62 C8.65336419,52.0511056 8.5729723,51.4408114 8.632,50.836 C8.658,50.626 8.706,50.418 8.752,50.209 C8.95576498,49.5176489 8.98564963,48.7866772 8.839,48.081 C8.54814599,47.1623751 7.87220583,46.4156291 6.987,46.035 L6.78,45.917 C6.88797779,45.6989963 7.01691908,45.4920204 7.165,45.299 C7.33275906,45.0864363 7.40714209,44.8149259 7.3711438,44.5465408 C7.33514552,44.2781557 7.19184383,44.0358431 6.974,43.875 C6.734,43.699 6.168,43.275 5.754,42.941 C5.802,42.854 5.854,42.758 5.904,42.671 C6.061,42.396 6.24,42.076 6.415,41.706 C6.73144627,41.0050454 6.82465982,40.2237273 6.682,39.468 C6.442,38.248 5.273,37.65 4.421,37.214 C4.13330073,37.0772824 3.85736569,36.9170729 3.596,36.735 C3.38336862,36.5912941 3.18391862,36.42899 3,36.25 C3.005,36.1 3.163,35.73 3.925,34.8 Z" id="Shape"/><path d="M10.965,19.541 C11.5022883,19.6658555 12.0392087,19.33207 12.165,18.795 L12.265,18.36 C12.4404278,17.5245136 12.6637971,16.6998165 12.934,15.89 C13.5371016,14.2209058 14.4703406,12.6904483 15.678,11.39 C16.9741231,10.1681454 18.5604442,9.29702828 20.287,8.859 C20.6356132,8.76076066 20.9038574,8.48169775 20.9882433,8.12947458 C21.0726292,7.7772514 20.9599648,7.40693017 20.6937164,7.1613819 C20.4274681,6.91583364 20.0492577,6.83344433 19.705,6.946 C17.6443921,7.48150189 15.7566426,8.53920641 14.224,10.017 C12.8315699,11.514171 11.755744,13.2770561 11.061,15.2 C10.7612032,16.086623 10.5141052,16.9902005 10.321,17.906 L10.221,18.339 C10.0947715,18.8763332 10.4277718,19.4143256 10.965,19.541 Z" id="Shape"/><circle id="Oval" cx="10" cy="22" r="1"/></g></g></svg>
