<?xml version="1.0" encoding="UTF-8"?>
<svg xmlns="http://www.w3.org/2000/svg" xmlns:xlink="http://www.w3.org/1999/xlink" width="512" height="512" viewBox="0 0 60 60" version="1.1"><!-- Generator: Sketch 51.3 (57544) - http://www.bohemiancoding.com/sketch --><title>048 - Depression</title><desc>Created with Sketch.</desc><defs/><g id="Page-1" stroke="none" stroke-width="1" fill="none" fill-rule="evenodd"><g id="048---Depression" transform="translate(-1.000000, -1.000000)" fill="#1A1D61" fill-rule="nonzero"><path d="M19.709,6.942 C17.6484938,7.47775479 15.7608052,8.53542525 14.228,10.013 C12.8336782,11.5109919 11.756452,13.2753027 11.061,15.2 C10.7614123,16.0866868 10.5143176,16.9902519 10.321,17.906 L10.221,18.339 C10.1005665,18.8742965 10.4339432,19.4066616 10.9681032,19.5320396 C11.5022632,19.6574177 12.0376881,19.3289778 12.168,18.796 L12.268,18.361 C12.4431601,17.5257777 12.6665339,16.7013982 12.937,15.892 C13.5394807,14.2226081 14.4727916,12.6920326 15.681,11.392 C16.9766775,10.1695333 18.5631668,9.29832387 20.29,8.861 C20.6319032,8.75703572 20.8923705,8.47856559 20.9732863,8.13048661 C21.0542022,7.78240763 20.9432736,7.41760128 20.6822863,7.17348659 C20.421299,6.9293719 20.0499032,6.8430357 19.708,6.947 L19.709,6.942 Z" id="Shape"/><circle id="Oval" cx="10" cy="22" r="1"/><path d="M55.969,15.421 C58.0022815,11.3252065 56.9928524,6.37159295 53.519002,3.3980224 C50.0451517,0.424451858 44.9951172,0.191243719 41.262,2.832 C38.0318069,1.45006668 34.5258416,0.833682117 31.018,1.031 C27.7640329,1.25678222 24.5310192,1.72102869 21.345,2.42 C16.837,3.32 13.56,4.899 11.322,7.264 C9.55738496,9.15253225 8.193025,11.3785037 7.311,13.808 C6.95048378,14.8528228 6.65459148,15.9188366 6.425,17 L6.325,17.421 C6.11204945,18.2059209 5.82544356,18.9689756 5.469,19.7 C5.269,20.156 5.062,20.611 4.883,21.084 C4.65280141,21.6093925 4.56187795,22.1852411 4.619,22.756 C4.8204012,23.6515695 5.33763366,24.4446356 6.076,24.99 C6.565,25.438 6.886,25.755 6.89,26.03 C6.85344643,26.1820774 6.7962489,26.3284357 6.72,26.465 C5.52223551,28.9857827 4.05537424,31.3696418 2.345,33.575 C1.62,34.458 0.86,35.486 1.02,36.517 C1.23301401,37.3114076 1.75617119,37.9869722 2.472,38.392 C2.80054825,38.6202248 3.1473953,38.8209078 3.509,38.992 C3.942,39.214 4.667,39.584 4.718,39.843 C4.78050351,40.1842223 4.73940527,40.5363437 4.6,40.854 C4.451,41.174 4.295,41.448 4.16,41.687 C3.794,42.334 3.18,43.418 4.105,44.171 C4.321,44.371 4.694,44.66 5.034,44.922 C4.78364708,45.3596165 4.67042776,45.8623103 4.709,46.365 C4.7624898,46.7610202 4.97704672,47.1174091 5.302,47.35 C5.524,47.505 5.761,47.642 5.995,47.774 C6.587,48.111 6.817,48.268 6.895,48.581 C6.95072661,48.9834757 6.91657463,49.3932994 6.795,49.781 C6.736,50.049 6.679,50.317 6.645,50.581 C6.54569822,51.4923539 6.65829272,52.4143284 6.974,53.275 C7.42302917,54.8635415 8.859478,55.9705333 10.51,56 C10.7859477,55.9996337 11.0611041,55.9704758 11.331,55.913 C14.1875814,55.2367145 17.0023478,54.3946219 19.761,53.391 C22.015,54.713 23.438,58.733 23.809,60.241 C23.9197719,60.6870872 24.3203652,61.0002183 24.78,61 L49.88,60.93 C50.198095,60.9293833 50.4969218,60.7774667 50.6848608,60.5208273 C50.8727998,60.2641879 50.9274293,59.9334437 50.832,59.63 C50.5854808,58.9523229 50.2448059,58.312716 49.82,57.73 C49.5797208,57.3837455 49.3632231,57.0215796 49.172,56.646 C48.7189713,55.7295816 48.341388,54.7777639 48.043,53.8 C47.4716746,51.8664876 47.0754115,49.8855071 46.859,47.881 C46.6852268,46.4107045 46.7138264,44.9235273 46.944,43.461 L55,35.414 C55.5718158,34.8420115 55.7428438,33.9819268 55.433356,33.2346909 C55.1238681,32.487455 54.3947918,32.0001727 53.586,32 L50.443,32 L51.193,30 L53.5,30 C57.1556949,29.9958878 60.2758588,27.3566969 60.8862711,23.752322 C61.4966835,20.1479471 59.419493,16.6285677 55.969,15.421 Z M47.376,57.526 C47.6044495,57.9800793 47.8640706,58.4177931 48.153,58.836 C48.175,58.868 48.196,58.901 48.218,58.936 L25.536,59 C24.8721602,56.6278229 23.6672676,54.4419012 22.016,52.614 L22.952,52.287 C23.606,52.059 24.099,51.887 24.352,51.805 C28.637,50.452 30.779,48.505 30.721,46.005 C30.6973913,45.4587003 30.2468073,45.0284169 29.7,45.03 C29.4347583,45.0362894 29.1828879,45.1477272 28.9998363,45.3397814 C28.8167846,45.5318357 28.7175579,45.7887619 28.724,46.054 C28.748,47.083 27.905,48.584 23.746,49.898 C23.48,49.984 22.972,50.161 22.297,50.398 C21.548,50.66 20.59,50.998 19.532,51.354 C16.7179576,52.3860452 13.8464785,53.2541668 10.932,53.954 C9.99676605,54.1378592 9.08388232,53.5481319 8.867,52.62 C8.65332951,52.0511143 8.57293656,51.440812 8.632,50.836 C8.658,50.627 8.706,50.418 8.752,50.209 C8.95572393,49.5176421 8.98560816,48.7866806 8.839,48.081 C8.54813158,47.1626174 7.87214829,46.4161888 6.987,46.036 L6.78,45.917 C6.88817724,45.6985751 7.01745938,45.4912548 7.166,45.298 C7.33332921,45.0853699 7.40735318,44.8140087 7.37117341,44.5458638 C7.33499364,44.277719 7.19169851,44.0356798 6.974,43.875 C6.734,43.698 6.169,43.275 5.754,42.941 C5.802,42.854 5.854,42.758 5.904,42.672 C6.061,42.396 6.24,42.072 6.415,41.706 C6.73144627,41.0050454 6.82465982,40.2237273 6.682,39.468 C6.442,38.247 5.273,37.649 4.42,37.213 C4.13189862,37.0770471 3.855901,36.9168012 3.595,36.734 C3.38116343,36.5902424 3.18038937,36.42795 2.995,36.249 C2.995,36.098 3.158,35.73 3.92,34.803 C5.71104037,32.4966723 7.24699829,30.0031296 8.501,27.366 C8.73429154,26.9531999 8.86592261,26.4907772 8.885,26.017 C8.78170832,25.0118401 8.24904392,24.1003679 7.424,23.517 C7.024,23.146 6.639,22.796 6.594,22.471 C6.60068412,22.2343377 6.65368284,22.0012793 6.75,21.785 C6.913,21.357 7.101,20.937 7.29,20.516 C7.70004204,19.670842 8.02756029,18.7880832 8.268,17.88 L8.368,17.455 C8.58115776,16.4542831 8.85499689,15.4674604 9.188,14.5 C9.97629305,12.3245514 11.1968027,10.3311884 12.776,8.64 C14.69,6.614 17.7,5.183 21.74,4.38 C24.8296033,3.70189023 27.9646105,3.25035562 31.12,3.029 C34.0051721,2.86325162 36.8932255,3.30054651 39.6,4.313 C39.1534052,4.79628223 38.756107,5.32288664 38.414,5.885 C35.7186892,4.3789929 32.3549903,4.8167369 30.1349024,6.96242262 C27.9148145,9.10810833 27.3627086,12.4549381 28.776,15.2 C25.0697671,16.0734836 22.6062585,19.5855828 23.0468336,23.3677818 C23.4874087,27.1499809 26.6922273,30.0017965 30.5,30 L41.118,30 L39.549,34.316 C39.3258618,34.9291081 39.4158106,35.6125167 39.7899934,36.1470067 C40.1641762,36.6814966 40.775549,36.9998695 41.428,37 L44.867,37 L44.008,43.876 C43.9551825,44.2998025 44.1773406,44.7103733 44.561,44.898 C44.6335859,44.9246835 44.7091357,44.9424797 44.786,44.951 C44.7214879,46.0112603 44.7519426,47.0751661 44.877,48.13 C45.107387,50.2535073 45.5284186,52.3519716 46.135,54.4 C46.4633733,55.4738725 46.8784037,56.5193078 47.376,57.526 Z M53.586,34 L46.354,41.232 L46.854,37.249 C46.9254974,36.6791958 46.74861,36.1061508 46.3683806,35.6757855 C45.9881513,35.2454202 45.4412718,34.9992646 44.867,35 L41.428,35 L43.464,29.4 C43.464,29.389 43.471,29.378 43.476,29.367 L44.7,26 L50.557,26 L48.57,31.3 C48.3405937,31.9139894 48.4265946,32.6014194 48.8001894,33.1399703 C49.1737841,33.6785213 49.7875535,33.9998363 50.443,34 L53.586,34 Z M57.396,26.39 C56.3627071,27.4228109 54.9609546,28.0020772 53.5,28 L51.943,28 L52.43,26.7 C52.6594063,26.0860106 52.5734054,25.3985806 52.1998106,24.8600297 C51.8262159,24.3214787 51.2124465,24.0001637 50.557,24 L44.7,24 C43.8592672,24.0016614 43.1087651,24.527412 42.82,25.317 L41.845,28 L30.5,28 C28.5350392,27.9928547 26.7231526,26.9379581 25.7468602,25.2326795 C24.7705678,23.5274009 24.7781918,21.4308127 25.7668602,19.7326795 C26.7555286,18.0345462 28.5750392,16.9928547 30.54,17 C30.935734,17.0001777 31.2943471,16.7669701 31.4546884,16.4051744 C31.6150297,16.0433787 31.5469333,15.6210613 31.281,15.328 C30.4550322,14.4165465 29.9983222,13.2300275 30,12 C29.9998447,10.0722163 31.1079696,8.31605958 32.8480747,7.48637028 C34.5881799,6.65668098 36.6502673,6.90126734 38.148,8.115 C38.3895181,8.31200514 38.7090816,8.38513548 39.0122421,8.312777 C39.3154025,8.24041852 39.5674904,8.03084616 39.694,7.746 C41.2320142,4.29829551 44.9709178,2.39502623 48.6635932,3.1800756 C52.3562686,3.96512497 54.9975494,7.22479828 55,11 C55.0013367,12.607396 54.5129958,14.177063 53.6,15.5 C53.4037141,15.7851909 53.368906,16.1516202 53.5079835,16.4686681 C53.6470611,16.7857161 53.9402355,17.0082712 54.283,17.057 C56.3459581,17.3500432 58.0661843,18.7837059 58.7262412,20.760065 C59.3862982,22.7364242 58.8728363,24.9160856 57.4,26.39 L57.396,26.39 Z" id="Shape"/><path d="M44,11 C43.4477153,11 43,11.4477153 43,12 C43,12.5522847 43.4477153,13 44,13 C46.209139,13 48,14.790861 48,17 C48,17.5522847 48.4477153,18 49,18 C49.5522847,18 50,17.5522847 50,17 C49.9966926,13.6876624 47.3123376,11.0033074 44,11 Z" id="Shape"/><path d="M38,17 C35.790861,17 34,18.790861 34,21 C34,21.5522847 34.4477153,22 35,22 C35.5522847,22 36,21.5522847 36,21 C36,19.8954305 36.8954305,19 38,19 C38.5522847,19 39,18.5522847 39,18 C39,17.4477153 38.5522847,17 38,17 Z" id="Shape"/><path d="M37,38 C37,36.059 34.288,32.938 33.744,32.332 C33.5492812,32.1298432 33.2806827,32.0156261 33,32.0156261 C32.7193173,32.0156261 32.4507188,32.1298432 32.256,32.332 C31.712,32.938 29,36.059 29,38 C29,40.209139 30.790861,42 33,42 C35.209139,42 37,40.209139 37,38 Z M33,40 C31.8954305,40 31,39.1045695 31,38 C31,37.362 31.939,35.874 33,34.549 C34.062,35.881 35,37.381 35,38 C35,39.1045695 34.1045695,40 33,40 Z" id="Shape"/><path d="M58,49 C58,47.059 55.288,43.938 54.744,43.332 C54.5492812,43.1298432 54.2806827,43.0156261 54,43.0156261 C53.7193173,43.0156261 53.4507188,43.1298432 53.256,43.332 C52.712,43.938 50,47.059 50,49 C50,51.209139 51.790861,53 54,53 C56.209139,53 58,51.209139 58,49 Z M52,49 C52,48.362 52.939,46.874 54,45.549 C55.062,46.881 56,48.381 56,49 C56,50.1045695 55.1045695,51 54,51 C52.8954305,51 52,50.1045695 52,49 Z" id="Shape"/><path d="M38.256,46.332 C37.712,46.938 35,50.059 35,52 C35,54.209139 36.790861,56 39,56 C41.209139,56 43,54.209139 43,52 C43,50.059 40.288,46.938 39.744,46.332 C39.5492812,46.1298432 39.2806827,46.0156261 39,46.0156261 C38.7193173,46.0156261 38.4507188,46.1298432 38.256,46.332 Z M39,54 C37.8954305,54 37,53.1045695 37,52 C37,51.362 37.939,49.874 39,48.549 C40.062,49.881 41,51.381 41,52 C41,53.1045695 40.1045695,54 39,54 Z" id="Shape"/></g></g></svg>
