<?xml version="1.0" encoding="UTF-8"?>
<svg xmlns="http://www.w3.org/2000/svg" xmlns:xlink="http://www.w3.org/1999/xlink" width="512" height="512" viewBox="0 0 60 60" version="1.1"><!-- Generator: Sketch 51.3 (57544) - http://www.bohemiancoding.com/sketch --><title>004 - Anger</title><desc>Created with Sketch.</desc><defs/><g id="Page-1" stroke="none" stroke-width="1" fill="none" fill-rule="evenodd"><g id="004---Anger" transform="translate(-1.000000, -1.000000)" fill="#FFF" fill-rule="nonzero"><path d="M2.471,38.391 C2.80005232,38.6189823 3.14721108,38.8196521 3.509,38.991 C3.942,39.212 4.666,39.582 4.717,39.842 C4.78064547,40.1834239 4.73987106,40.5361052 4.6,40.854 C4.451,41.174 4.294,41.449 4.16,41.687 C3.793,42.333 3.181,43.416 4.105,44.172 C4.321,44.372 4.694,44.661 5.035,44.922 C4.78441543,45.359553 4.67085435,45.8622176 4.709,46.365 C4.76229209,46.7608192 4.97692342,47.1169696 5.302,47.349 C5.524,47.505 5.761,47.641 5.995,47.774 C6.586,48.11 6.817,48.267 6.895,48.582 C6.95099416,48.9844684 6.91683729,49.3943509 6.795,49.782 C6.736,50.051 6.679,50.319 6.645,50.582 C6.54569822,51.4933539 6.65829272,52.4153284 6.974,53.276 C7.42378842,54.8643012 8.86049817,55.9707749 10.511,56 C10.7865898,55.9991281 11.0613626,55.9699754 11.331,55.913 C14.1878144,55.2359552 17.0028891,54.3935364 19.762,53.39 C22.014,54.712 23.438,58.732 23.809,60.241 C23.9197719,60.6870872 24.3203652,61.0002183 24.78,61 L49.88,60.93 C50.198095,60.9293833 50.4969218,60.7774667 50.6848608,60.5208273 C50.8727998,60.2641879 50.9274293,59.9334437 50.832,59.63 C50.5846858,58.9524827 50.2437077,58.3129385 49.819,57.73 C49.578794,57.3850885 49.3622956,57.0242578 49.171,56.65 C48.718323,55.7320461 48.3407548,54.7789287 48.042,53.8 C47.5273155,52.0717341 47.1593442,50.3031298 46.942,48.513 C46.8679938,47.9654097 46.3640903,47.5814939 45.8165,47.6555 C45.2689097,47.7295062 44.8849939,48.2334097 44.959,48.781 C45.1920481,50.6837779 45.5854473,52.5634634 46.135,54.4 C46.4635283,55.4757581 46.8785487,56.5231747 47.376,57.532 C47.6039935,57.9827154 47.8629471,58.4170892 48.151,58.832 L48.218,58.932 L25.536,59 C24.8713257,56.6279525 23.6661515,54.4421411 22.015,52.614 L22.915,52.301 C23.587,52.066 24.094,51.889 24.354,51.806 C28.638,50.45 30.78,48.5 30.721,46.006 C30.7207126,45.7393405 30.611553,45.4843611 30.4187962,45.3001 C30.2260394,45.1158388 29.9664018,45.0182755 29.7,45.03 C29.1480455,45.043101 28.711146,45.5010397 28.724,46.053 C28.748,47.082 27.905,48.583 23.748,49.898 C23.476,49.985 22.948,50.168 22.257,50.411 C21.514,50.67 20.572,51 19.532,51.353 L19.525,51.353 C16.7108456,52.38471 13.8393861,53.2528257 10.925,53.953 C9.99353686,54.1273242 9.08880148,53.5413124 8.867,52.62 C8.65331583,52.0507696 8.57292479,51.4401399 8.632,50.835 C8.658,50.626 8.706,50.417 8.751,50.208 C8.95521589,49.5170654 8.98510596,48.7863046 8.838,48.081 C8.54781232,47.1628818 7.87254397,46.4164365 6.988,46.036 L6.78,45.917 C6.88833948,45.6989801 7.01761396,45.492007 7.166,45.299 C7.33354781,45.0861849 7.40760189,44.8145074 7.37122447,44.5461062 C7.33484705,44.2777049 7.19115003,44.0355401 6.973,43.875 C6.734,43.699 6.173,43.275 5.753,42.941 C5.801,42.854 5.853,42.758 5.904,42.672 C6.061,42.396 6.241,42.072 6.415,41.705 C6.7319138,41.0045174 6.82481169,40.2232671 6.681,39.468 C6.442,38.248 5.273,37.65 4.42,37.214 C4.13261917,37.0772821 3.8570164,36.9170713 3.596,36.735 C3.3817006,36.5914967 3.18087589,36.4288287 2.996,36.249 C2.996,36.097 3.159,35.73 3.92,34.803 C5.71116428,32.4976674 7.24682343,30.004736 8.5,27.368 C8.73495197,26.9546937 8.86732269,26.4910533 8.886,26.016 C8.78270832,25.0108401 8.25004392,24.0993679 7.425,23.516 C7.025,23.145 6.639,22.795 6.595,22.471 C6.60220302,22.2345101 6.65482555,22.001613 6.75,21.785 C6.913,21.357 7.102,20.937 7.29,20.516 C7.70027047,19.6701372 8.02811747,18.7867251 8.269,17.878 L8.369,17.452 C8.58139683,16.4521828 8.85491022,15.4663323 9.188,14.5 C9.97619736,12.3242079 11.1967103,10.3304994 12.776,8.639 C14.69,6.614 17.7,5.182 21.74,4.38 C24.8302507,3.7015418 27.9659239,3.24967331 31.122,3.028 C31.8258472,2.99099365 32.5311528,2.99099365 33.235,3.028 C33.7872847,3.05837566 34.2596243,2.63528475 34.29,2.083 C34.3203757,1.53071525 33.8972847,1.05837566 33.345,1.028 C32.5695417,0.986994032 31.7924583,0.986994032 31.017,1.028 C27.7634202,1.25375503 24.5307612,1.71766432 21.345,2.416 C16.836,3.316 13.559,4.897 11.323,7.261 C9.55767725,9.14879579 8.19291823,11.3745232 7.311,13.804 C6.95028969,14.8501201 6.65439546,15.9174766 6.425,17 L6.325,17.422 C6.11127241,18.2072701 5.82400188,18.9706463 5.467,19.702 C5.267,20.157 5.061,20.612 4.881,21.085 C4.65174732,21.610306 4.56119027,22.1856704 4.618,22.756 C4.81921123,23.6521932 5.3364331,24.4459531 6.075,24.992 C6.564,25.44 6.885,25.756 6.889,26.031 C6.85260177,26.1828088 6.79539369,26.3288576 6.719,26.465 C5.52174253,28.9865874 4.05449416,31.370866 2.343,33.576 C1.62,34.458 0.86,35.487 1.019,36.517 C1.23194481,37.3111886 1.75515682,37.9864637 2.471,38.391 Z" id="Shape"/><path d="M28,12 C27.9989547,13.1133851 28.2650703,14.2107688 28.776,15.2 C25.0697671,16.0734836 22.6062585,19.5855828 23.0468336,23.3677818 C23.4874087,27.1499809 26.6922273,30.0017965 30.5,30 L35.306,30 L35.085,32.127 C34.9901485,33.0327873 35.5192265,33.8882739 36.372,34.208 L43.094,36.729 L44.153,44.142 C44.2124943,44.5580226 44.5257522,44.8924574 44.937,44.979 C45.004793,44.9928619 45.0738043,44.9998971 45.143,45 C45.4883433,45.0001306 45.8093134,44.8220659 45.992,44.529 L52.237,34.511 C52.5439118,34.0175162 52.6210025,33.4149417 52.4482103,32.8600868 C52.2754181,32.3052319 51.8698322,31.8529718 51.337,31.621 L48.602,30.421 L48.714,30 L53.5,30 C57.1556949,29.9958878 60.2758588,27.3566969 60.8862711,23.752322 C61.4966835,20.1479471 59.419493,16.6285677 55.969,15.421 C58.325541,10.6081017 56.4692877,4.79308414 51.7600294,2.23571016 C47.0507711,-0.321663807 41.1626585,1.28775736 38.409,5.885 C36.2408759,4.67607613 33.5946505,4.70585466 31.4542805,5.9632629 C29.3139105,7.22067114 27.9995793,9.51761024 28,12 Z M50.54,33.453 L45.74,41.144 L45.069,36.444 C44.9656288,35.7202527 44.4755895,35.1105794 43.791,34.854 L37.07,32.334 L38.044,23 L48.429,23 L46.668,29.932 C46.4238978,30.8808682 46.9060446,31.8663643 47.805,32.256 L50.54,33.453 Z M35,7 C36.1461951,6.99939812 37.2577135,7.39309032 38.148,8.115 C38.3894862,8.31159862 38.7087741,8.38448224 39.0116501,8.31214485 C39.3145262,8.23980746 39.5664184,8.03050608 39.693,7.746 C41.2303155,4.29702028 44.9699414,2.39263016 48.6634881,3.17781347 C52.3570348,3.96299678 54.9986061,7.22391764 55,11 C55.0031643,12.6067675 54.5169277,14.1763979 53.606,15.5 C53.4097141,15.7851909 53.374906,16.1516202 53.5139835,16.4686681 C53.6530611,16.7857161 53.9462355,17.0082712 54.289,17.057 C57.1429103,17.4711021 59.1923668,20.0191979 58.9849808,22.8955282 C58.7775949,25.7718584 56.3837969,27.9995917 53.5,28 L49.222,28 L50.367,23.492 C50.5187895,22.8939311 50.386026,22.2592818 50.007233,21.7722064 C49.6284401,21.2851311 49.0460304,21.0001665 48.429,21 L38.044,21 C37.0196706,21.0001326 36.1610181,21.7741718 36.055,22.793 L35.514,28 L30.5,28 C28.5350392,27.9928547 26.7231526,26.9379581 25.7468602,25.2326795 C24.7705678,23.5274009 24.7781918,21.4308127 25.7668602,19.7326795 C26.7555286,18.0345462 28.5750392,16.9928547 30.54,17 C30.935325,16.9998192 31.2934367,16.7667633 31.4536924,16.405377 C31.613948,16.0439908 31.5462631,15.6221166 31.281,15.329 C30.455133,14.4170862 29.9984578,13.2303011 30,12 C30.0033061,9.23994685 32.2399468,7.00330612 35,7 Z" id="Shape"/><path d="M12.167,18.794 L12.267,18.361 C12.4422611,17.5251451 12.6656327,16.7001058 12.936,15.89 C13.5388535,14.2207868 14.4721212,12.6902822 15.68,11.39 C16.975966,10.1679296 18.5623464,9.29677994 20.289,8.859 C20.8110586,8.69323351 21.1026082,8.13832652 20.94293,7.61437367 C20.7832517,7.09042081 20.2317761,6.7924316 19.706,6.946 C17.6456812,7.48149166 15.758253,8.53920915 14.226,10.017 C12.8329407,11.5140596 11.7564386,13.2769381 11.061,15.2 C10.7612456,16.087314 10.5141488,16.9915545 10.321,17.908 L10.221,18.341 C10.1285742,18.6929446 10.2346177,19.0673168 10.4978861,19.3185085 C10.7611546,19.5697002 11.1400903,19.6580601 11.4873103,19.5492217 C11.8345303,19.4403832 12.095225,19.1515268 12.168,18.795 L12.167,18.794 Z" id="Shape"/><circle id="Oval" cx="10" cy="22" r="1"/></g></g></svg>
